<svg width="20" height="20" viewBox="0 0 20 20" fill="none" xmlns="http://www.w3.org/2000/svg">
<path d="M18.1061 19.2308H1.89224C1.59594 19.2322 1.3112 19.1159 1.1006 18.9075C0.890005 18.6991 0.77079 18.4155 0.769162 18.1192V17.7254C0.759705 17.0746 0.934942 16.4345 1.27455 15.8792C1.61218 15.3258 2.07613 14.8603 2.62839 14.5208C3.37883 14.0705 4.21098 13.7733 5.07685 13.6462H5.10532C5.53083 13.586 5.95293 13.5039 6.36993 13.4C6.62075 13.3407 6.86621 13.2607 7.10378 13.1608C7.10378 13.0838 7.09455 12.9762 7.08224 12.8408C6.97225 12.0036 6.56654 11.2334 5.93839 10.6692C5.75536 10.4742 5.58379 10.2687 5.42455 10.0538C5.0025 9.44308 4.74934 8.73163 4.6907 7.99154V7.95308C4.68344 7.61795 4.7891 7.29012 4.9907 7.02231C4.87431 6.18145 4.87431 5.32856 4.9907 4.4877C5.09823 3.65564 5.50612 2.89157 6.13762 2.33923C6.11804 2.18886 6.1235 2.03628 6.15378 1.8877C6.20712 1.63796 6.33136 1.40891 6.51159 1.22799C6.69182 1.04708 6.9204 0.921983 7.16993 0.867695C7.34849 0.824966 7.53101 0.800989 7.71455 0.796157C7.96608 0.78308 8.26147 0.769234 8.5607 0.769234C8.77455 0.769234 8.96993 0.776157 9.15762 0.790003C12.6915 1.05308 14.0038 2.3777 14.1422 2.52846L14.1592 2.5477C14.5135 2.96714 14.769 3.46084 14.9069 3.99231C14.9484 4.1408 14.98 4.29191 15.0015 4.44462C15.0988 5.08077 15.1246 5.72581 15.0784 6.3677C15.0676 6.56693 15.0484 6.77231 15.0184 6.99923C15.1126 7.1278 15.1856 7.27064 15.2345 7.42231C15.2872 7.58872 15.3131 7.7624 15.3115 7.93693V7.96923C15.2581 8.71791 15.0044 9.43845 14.5769 10.0554C14.4166 10.2703 14.244 10.4758 14.0599 10.6708C13.4329 11.2341 13.0275 12.0028 12.9169 12.8385C12.9069 12.9449 12.8997 13.0516 12.8953 13.1585C13.1344 13.2591 13.3814 13.3396 13.6338 13.3992C14.045 13.5014 14.4612 13.5823 14.8807 13.6415L14.9161 13.6469C15.7885 13.7828 16.6266 14.0855 17.3845 14.5385C17.9358 14.8774 18.399 15.3422 18.7361 15.8946C19.0747 16.4467 19.2464 17.0849 19.2307 17.7323V18.1169C19.2302 18.264 19.2007 18.4095 19.1439 18.5451C19.087 18.6807 19.004 18.8038 18.8995 18.9072C18.7951 19.0107 18.6712 19.0925 18.535 19.1481C18.3989 19.2036 18.2531 19.2317 18.1061 19.2308ZM2.30762 17.6923H17.6922V17.66C17.6944 17.3161 17.5995 16.9785 17.4184 16.6862C17.2044 16.3408 16.9119 16.0508 16.5645 15.84C15.979 15.495 15.3332 15.2648 14.6615 15.1615C14.188 15.0946 13.7184 15.0029 13.2545 14.8869C12.1553 14.6062 11.5907 14.2715 11.4399 13.8192C11.4147 13.7639 11.3961 13.7058 11.3845 13.6462C11.3439 13.3308 11.3439 13.0115 11.3845 12.6962C11.5206 11.526 12.0655 10.4415 12.923 9.63385C13.0657 9.4832 13.2003 9.32503 13.3261 9.16C13.5772 8.78874 13.7316 8.36067 13.7753 7.91462V7.89616C13.7753 7.89154 13.7445 7.86308 13.7292 7.84693C13.7021 7.82002 13.6765 7.79178 13.6522 7.76231C13.5689 7.66278 13.509 7.54575 13.477 7.41991C13.445 7.29407 13.4418 7.16264 13.4676 7.03539C13.5115 6.74693 13.5384 6.50693 13.5507 6.28231C13.5875 5.75144 13.5648 5.21813 13.483 4.69231C13.483 4.68 13.4812 4.66795 13.4776 4.65616C13.465 4.56727 13.4462 4.47937 13.4215 4.39308C13.3459 4.08979 13.2043 3.80691 13.0069 3.56462C12.913 3.47539 11.8576 2.53077 9.04301 2.32154C8.88224 2.31007 8.72111 2.30443 8.55993 2.30462C8.29608 2.30462 8.02147 2.3177 7.7907 2.32923H7.73762C7.77308 2.4819 7.76697 2.64127 7.71993 2.79077C7.69912 2.86037 7.66856 2.92667 7.62916 2.9877C7.49923 3.17694 7.34067 3.34484 7.15916 3.48539C6.82121 3.77561 6.59648 4.17577 6.52455 4.61539C6.52314 4.64684 6.5198 4.67819 6.51455 4.70923C6.4075 5.47086 6.4171 6.24435 6.54301 7.00308C6.59246 7.21278 6.5711 7.43296 6.48224 7.62923C6.43857 7.72027 6.37741 7.80182 6.30224 7.86923L6.22532 7.93923C6.27249 8.37795 6.42647 8.79842 6.67378 9.16385C6.79814 9.32701 6.93115 9.48339 7.07224 9.63231L7.07685 9.63693C7.93441 10.4446 8.47925 11.5291 8.61532 12.6992C8.65598 13.0146 8.65598 13.3339 8.61532 13.6492C8.60376 13.7089 8.58517 13.767 8.55993 13.8223C8.40609 14.2777 7.84762 14.6085 6.75147 14.8885C6.28027 15.0063 5.8032 15.0992 5.32224 15.1669C4.66179 15.2614 4.02624 15.4843 3.45147 15.8231C3.10369 16.0338 2.81061 16.3238 2.59609 16.6692C2.40975 16.9691 2.30992 17.3146 2.30762 17.6677V17.6923Z" fill="#A4A4A4"/>
</svg>
