<svg width="86" height="22" viewBox="0 0 86 22" fill="none" xmlns="http://www.w3.org/2000/svg">
<g clip-path="url(#clip0_88_303)">
<path d="M6.62565 1.27909C3.4568 2.37915 1.37379 4.64662 0.576034 7.83454C-0.886511 13.4695 2.63689 19.3515 8.35411 20.8556C13.0077 22.0904 18.1266 19.7331 20.3647 15.3329C20.7857 14.5247 21.0738 13.694 20.9852 13.5144C20.9187 13.3124 20.3204 12.9981 19.6778 12.796L18.5033 12.4593C18.5033 12.4593 19.1858 9.89996 17.7942 6.33038C16.8191 4.24251 15.3566 2.73835 13.3844 1.75054C13.3844 1.75054 12.1745 1.09275 10.2599 0.937848C8.19678 0.771717 6.62565 1.27909 6.62565 1.27909ZM11.4122 4.96092C13.5838 5.70177 15.2236 8.26109 15.0242 10.5735C14.9577 11.4715 15.1128 11.6286 16.5754 11.9878C17.0851 12.1225 17.5061 12.347 17.5061 12.5042C17.5061 13.0205 16.1987 15.0635 15.4896 15.6697C13.606 17.2861 10.8582 17.8249 8.62003 17.0167C7.06885 16.4554 5.29606 14.7941 4.63127 13.2899C3.83352 11.4715 3.87784 9.13665 4.74207 7.54269C6.11598 5.02827 8.70867 4.01801 11.4122 4.96092ZM77.271 4.26496C77.1602 4.66907 76.9607 4.71397 75.055 4.71397C72.7061 4.71397 72.6839 4.73642 72.6839 6.55488C72.6839 7.22839 72.5953 7.38554 72.1964 7.45289C71.7975 7.49779 71.6646 7.69984 71.6202 8.23864C71.5538 8.86725 71.6202 8.9795 72.0413 8.9795C72.4845 8.9795 72.5066 9.04685 72.3958 10.2143L72.2629 11.449H74.2351V8.9795H75.5647C76.8721 8.9795 76.8943 8.9795 77.3375 9.87751C77.7585 10.7082 77.8693 10.7755 78.6671 10.7755H79.5534L79.1102 9.87751L78.6671 8.9795H80.462C82.0132 8.9795 82.2348 9.0244 82.124 9.3387C82.0575 9.54075 81.991 9.7428 81.991 9.78771C81.991 9.83261 81.7029 9.87751 81.3262 9.87751C80.595 9.87751 80.5285 10.0347 80.9273 10.8878C81.4592 12.1001 83.6087 11.2919 83.8968 9.76525C83.9854 9.204 84.1627 8.9795 84.5172 8.9346C85.2042 8.8448 85.182 7.54269 84.4951 7.45289C84.0297 7.38554 83.9854 7.25084 83.9854 6.03853V4.71397H81.5478C79.2654 4.71397 79.1102 4.69152 79.1102 4.26496C79.1102 3.88331 78.9551 3.81596 78.246 3.81596C77.5812 3.81596 77.3596 3.90576 77.271 4.26496ZM77.2267 6.73448L77.5812 7.40799H76.0079C74.5232 7.40799 74.4567 7.38554 74.4567 6.89163C74.4567 6.15078 74.6118 6.06098 75.8084 6.06098C76.7835 6.06098 76.9164 6.12833 77.2267 6.73448ZM82.1683 6.77938C82.2348 7.40799 82.2348 7.40799 80.8166 7.40799C79.5091 7.40799 79.3762 7.36309 79.1546 6.84673C78.9994 6.53243 78.8886 6.21813 78.8886 6.15078C78.8886 6.08343 79.6199 6.06098 80.5063 6.10588C82.0575 6.17323 82.1018 6.19568 82.1683 6.77938ZM28.586 10.8878V17.2861H30.3588V14.8165H31.223C31.7327 14.8165 32.2867 14.6369 32.5969 14.39C33.1066 13.9634 33.1066 13.9185 33.1509 9.22645L33.173 4.48946H28.586V10.8878ZM31.5111 6.17323C31.5554 6.24058 31.5332 6.95898 31.4224 7.78964C31.2895 8.6652 31.2895 9.92241 31.4224 10.8653C31.6662 12.7511 31.5997 13.0205 30.8906 13.0205H30.3588V6.06098H30.8684C31.1565 6.06098 31.4446 6.10588 31.5111 6.17323ZM34.3475 5.27522V6.06098H39.6659V9.98976C39.6659 13.0205 39.5994 14.0981 39.3335 14.5696C38.9789 15.2655 38.026 15.7146 36.8737 15.7146C36.1646 15.7146 36.1203 15.7595 36.1203 16.5003V17.2861H37.2948C38.9789 17.2861 40.3085 16.5677 40.9511 15.2655C41.4165 14.3226 41.4386 14.0083 41.4386 9.3836V4.48946H34.3475V5.27522ZM43.8762 8.08149V11.6735H48.7514V13.0205H44.3194V14.3675H48.7514V15.6921L46.1587 15.7594L43.5438 15.8268L43.4773 16.5677L43.4109 17.2861L49.9037 17.2412L56.3965 17.1738V15.8268L53.5822 15.7594L50.7457 15.6921V14.3675H55.3993V13.0205H50.7457V11.6735H52.4964C54.0476 11.6735 54.3356 11.6062 54.8896 11.1347L55.5101 10.5959V4.60172L49.7042 4.53437L43.8762 4.48946V8.08149ZM48.7514 6.59978C48.7514 7.07123 48.6406 7.16104 47.9315 7.22839C47.1559 7.29574 47.0894 7.36309 47.0229 8.01414C46.9564 8.73255 46.9786 8.755 47.8428 8.755C48.707 8.755 48.7514 8.7999 48.7514 9.4285V10.102H45.649V6.06098H47.2002C48.707 6.06098 48.7514 6.08343 48.7514 6.59978ZM53.6265 7.94679C53.6265 10.0796 53.6044 10.102 51.8316 10.102C50.7679 10.102 50.7457 10.0796 50.7457 9.45095C50.7457 8.8448 50.8122 8.77745 51.5878 8.7101C52.3412 8.64275 52.4077 8.5754 52.4077 7.96924C52.4077 7.36309 52.3412 7.29574 51.5878 7.22839C50.8565 7.16104 50.7457 7.07123 50.7457 6.59978C50.7457 6.08343 50.8122 6.06098 52.1861 6.06098H53.6265V7.94679ZM58.3244 5.32012L58.3909 6.17323H69.2492L69.3156 5.32012L69.3821 4.48946H58.2579L58.3244 5.32012Z" fill="#FFD6B1"/>
<path d="M34.3477 10.7755V14.143H35.8988C37.2727 14.143 37.5387 14.0757 38.004 13.5818C38.5359 13.0654 38.558 12.9083 38.558 10.2143V7.40799H34.3477V10.7755ZM36.896 10.6633C36.896 12.347 36.8739 12.4593 36.4085 12.5266C35.921 12.594 35.8988 12.5491 35.8988 10.6633C35.8988 8.77745 35.921 8.73255 36.4085 8.7999C36.8739 8.86725 36.896 8.9795 36.896 10.6633ZM57.4825 8.8448C57.416 9.0244 57.3938 9.40605 57.4381 9.69791C57.5046 10.1694 57.6154 10.2143 59.1888 10.2816L60.8951 10.349L59.6984 12.5491C58.3467 15.041 58.2137 15.8942 59.0115 16.7024C59.4768 17.1738 59.8314 17.2636 62.0917 17.3983C63.4877 17.4881 65.5043 17.533 66.568 17.4881C68.3851 17.3983 68.5402 17.3534 69.0499 16.7697C69.759 15.9391 69.7146 15.4452 68.8061 13.5144L68.0305 11.8756L67.3214 12.2572C66.9225 12.4593 66.568 12.6613 66.5236 12.6838C66.5015 12.7062 66.7231 13.2675 67.0112 13.9185C67.2992 14.5696 67.4987 15.2431 67.4322 15.4002C67.3435 15.6472 66.6123 15.7146 64.0196 15.7146C61.1167 15.7146 60.6956 15.6697 60.5627 15.3329C60.474 15.1084 60.8729 14.0981 61.6263 12.6389L62.823 10.3265H70.2686L70.2022 9.4734L70.1357 8.64275L63.8645 8.5754C58.5683 8.5305 57.5933 8.5754 57.4825 8.8448ZM72.6841 14.0308C72.6841 15.6697 72.6619 15.7146 72.1301 15.7146C71.6425 15.7146 71.5761 15.8044 71.5761 16.5003V17.2861H85.0935V16.5003C85.0935 15.8717 85.0049 15.7146 84.6503 15.7146C84.2515 15.7146 84.2071 15.5574 84.2071 14.0308V12.347H72.6841V14.0308ZM76.008 14.8165C76.008 15.6921 75.9859 15.7146 75.2324 15.7146C74.479 15.7146 74.4568 15.6921 74.4568 14.8165C74.4568 13.941 74.479 13.9185 75.2324 13.9185C75.9859 13.9185 76.008 13.941 76.008 14.8165ZM79.1104 14.8165C79.1104 15.6921 79.0882 15.7146 78.3348 15.7146C77.5814 15.7146 77.5592 15.6921 77.5592 14.8165C77.5592 13.941 77.5814 13.9185 78.3348 13.9185C79.0882 13.9185 79.1104 13.941 79.1104 14.8165ZM82.2128 14.839C82.2128 15.7146 82.1906 15.737 81.5036 15.6697C80.8389 15.6023 80.7724 15.535 80.7059 14.7492C80.6394 13.941 80.6394 13.9185 81.415 13.9185C82.1906 13.9185 82.2128 13.941 82.2128 14.839Z" fill="#FFD6B1"/>
</g>
<defs>
<clipPath id="clip0_88_303">
<rect width="85.5172" height="20.6897" fill="white" transform="translate(0 0.655182)"/>
</clipPath>
</defs>
</svg>
