<svg width="25" height="25" viewBox="0 0 25 25" fill="none" xmlns="http://www.w3.org/2000/svg">
<path d="M21.4845 2.73438C21.3907 2.73438 21.297 2.75 21.2016 2.79063L7.1282 8.44531H3.12508C3.07275 8.44633 3.02114 8.45764 2.97318 8.47861C2.92523 8.49958 2.88188 8.52979 2.84561 8.56751C2.80933 8.60524 2.78084 8.64974 2.76177 8.69848C2.7427 8.74722 2.73342 8.79924 2.73445 8.85156V16.1484C2.73445 16.375 2.91102 16.5547 3.12508 16.5547H5.60945C5.51727 16.8391 5.46883 17.1391 5.46883 17.4453C5.46883 19.0531 6.78133 20.3609 8.39852 20.3609C9.75164 20.3609 10.8907 19.4438 11.2266 18.2031L21.2032 22.2125C21.2985 22.2484 21.3938 22.2687 21.4876 22.2687C21.5922 22.2667 21.6955 22.2441 21.7914 22.2022C21.8873 22.1602 21.974 22.0998 22.0465 22.0243C22.1191 21.9489 22.176 21.8599 22.2142 21.7624C22.2523 21.6649 22.2709 21.5609 22.2688 21.4563V3.54688C22.2718 3.33549 22.1909 3.13155 22.0439 2.9796C21.897 2.82765 21.6958 2.74005 21.4845 2.73594V2.73438ZM8.39852 18.6094C8.17812 18.6081 7.96257 18.5446 7.77667 18.4262C7.59077 18.3078 7.44208 18.1393 7.34771 17.9402C7.25335 17.741 7.21715 17.5192 7.24327 17.3004C7.2694 17.0815 7.35679 16.8745 7.49539 16.7031L9.56727 17.5344C9.54262 17.8276 9.40887 18.1008 9.19246 18.3002C8.97606 18.4995 8.69274 18.6104 8.39852 18.6109V18.6094ZM20.5079 20.0359L7.78289 14.925L7.46883 14.7969H4.49227V10.2031H7.46883L7.78289 10.075L20.5079 4.96406V20.0359Z" fill="#A4A4A4"/>
</svg>
