<svg width="44" height="44" viewBox="0 0 44 44" fill="none" xmlns="http://www.w3.org/2000/svg">
<path d="M33 24.2C33 24.75 32.45 25.025 32.175 25.575C30.25 27.5 28.325 28.875 25.575 29.7L25.575 35.2C30.8 33.825 34.65 31.625 37.4 28.325C41.8 23.375 44.55 13.2 38.225 8.52501C36.575 7.42501 34.925 6.60001 33 6.60001C31.35 6.60001 29.7 7.15001 28.325 7.97501C28.05 7.97501 28.05 8.25001 27.775 8.25001C27.5 8.25001 27.225 8.52501 27.225 8.52501C26.675 8.80001 26.4 9.35001 26.125 9.62501C25.025 11 24.2 12.925 24.2 15.125C24.2 20.35 28.05 24.2 33 24.2ZM12.1 24.2C12.375 24.2 12.375 24.2 12.1 24.2C12.1 24.75 11.55 25.025 11.275 25.575C9.62501 27.5 7.42501 28.875 4.95001 29.7L4.95001 35.2C9.90001 33.825 13.75 31.625 16.775 28.325C21.175 23.375 23.925 13.2 17.6 8.52501C15.95 7.42501 14.3 6.60001 12.375 6.60001C10.725 6.60001 9.07501 7.15001 7.70001 7.97501C7.42501 7.97501 7.42501 8.25001 7.15002 8.25001C6.87501 8.25001 6.60001 8.52501 6.60001 8.52501C6.05001 8.80001 5.77501 9.35001 5.50001 9.62501C4.40001 11 3.57501 12.925 3.57501 15.125C3.30001 20.35 7.42501 24.2 12.1 24.2Z" fill="#3E3E4D"/>
</svg>
